<?xml version="1.0" encoding="UTF-8" standalone="no"?>
<!-- Created with Inkscape (http://www.inkscape.org/) -->

<svg
   width="92.854897mm"
   height="14.223892mm"
   viewBox="0 0 92.854897 14.223892"
   version="1.1"
   id="svg1"
   inkscape:version="1.3.2 (091e20e, 2023-11-25)"
   sodipodi:docname="drawing.svg"
   xmlns:inkscape="http://www.inkscape.org/namespaces/inkscape"
   xmlns:sodipodi="http://sodipodi.sourceforge.net/DTD/sodipodi-0.dtd"
   xmlns="http://www.w3.org/2000/svg"
   xmlns:svg="http://www.w3.org/2000/svg">
  <sodipodi:namedview
     id="namedview1"
     pagecolor="#ffffff"
     bordercolor="#000000"
     borderopacity="0.25"
     inkscape:showpageshadow="2"
     inkscape:pageopacity="0.0"
     inkscape:pagecheckerboard="0"
     inkscape:deskcolor="#d1d1d1"
     inkscape:document-units="mm"
     inkscape:zoom="0.78239463"
     inkscape:cx="246.03952"
     inkscape:cy="55.598541"
     inkscape:window-width="1472"
     inkscape:window-height="824"
     inkscape:window-x="0"
     inkscape:window-y="37"
     inkscape:window-maximized="1"
     inkscape:current-layer="layer1" />
  <defs
     id="defs1" />
  <g
     inkscape:label="Layer 1"
     inkscape:groupmode="layer"
     id="layer1"
     transform="translate(-80.698175,-230.71673)">
    <g
       id="g6277"
       transform="matrix(0.282223,0,0,0.282223,-9496.7069,91.35586)">
      <path
         style="fill:none;fill-rule:evenodd;stroke:#bf360c;stroke-width:2.8125;stroke-linecap:round"
         d="m 34058,518.43 h -121"
         id="path24124"
         inkscape:connector-curvature="0"
         sodipodi:nodetypes="cc" />
      <path
         inkscape:connector-curvature="0"
         id="path24126"
         d="m 34263.2,518.43 h -121"
         style="fill:none;fill-rule:evenodd;stroke:#bf360c;stroke-width:2.8125;stroke-linecap:round"
         sodipodi:nodetypes="cc" />
      <g
         id="g24140"
         transform="translate(12145.2)">
        <rect
           transform="rotate(41.6981)"
           ry="3.8935001"
           rx="3.8935001"
           y="-14222.2"
           x="16749.199"
           height="7.7870102"
           width="26.2666"
           id="rect24128"
           style="color:#000000;fill:#bf360c;stroke-width:0.257519;paint-order:stroke fill markers" />
        <circle
           style="fill:#bf360c;fill-rule:evenodd;stroke-width:1.799px"
           id="circle24130"
           cx="21954.699"
           cy="518.46899"
           r="24.672001" />
        <circle
           r="19.0396"
           cy="518.46899"
           cx="21954.699"
           id="circle24132"
           style="fill:#ffffff;fill-rule:evenodd;stroke-width:1.3883px" />
        <g
           style="fill:#bf360c"
           transform="matrix(0.835802,-0.086054,0.086054,0.835802,4120.87,2155.7)"
           id="g24138">
          <path
             sodipodi:nodetypes="ccccccccccccccccccccccccc"
             style="fill-rule:evenodd;stroke-width:0.366938px"
             d="m 21313.4,219.682 c -2.3,0.02 -4.2,1.532 -4.8,3.698 -0.7,2.663 0.9,5.4 3.5,6.114 2.7,0.713 5.4,-0.867 6.1,-3.53 0.7,-2.663 -0.8,-5.4 -3.5,-6.113 -0.4,-0.117 -0.9,-0.174 -1.3,-0.169 z m 9.7,3.185 c -1.6,0.02 -2.9,1.066 -3.4,2.571 -0.4,1.852 0.7,3.754 2.5,4.25 1.9,0.496 3.8,-0.602 4.3,-2.453 0.4,-1.851 -0.6,-3.754 -2.5,-4.25 -0.3,-0.08 -0.6,-0.121 -0.9,-0.118 z m -19.1,2.226 c -2.3,0.02 -4.2,1.533 -4.8,3.699 -0.7,2.662 0.9,5.399 3.5,6.113 2.7,0.714 5.4,-0.867 6.2,-3.53 0.7,-2.662 -0.9,-5.399 -3.6,-6.112 -0.4,-0.117 -0.9,-0.174 -1.3,-0.17 z m -3.4,10.748 c -1.6,0.01 -2.9,1.066 -3.3,2.572 -0.5,1.851 0.6,3.753 2.4,4.249 1.9,0.496 3.8,-0.602 4.3,-2.453 0.5,-1.851 -0.6,-3.754 -2.5,-4.25 -0.3,-0.08 -0.6,-0.12 -0.9,-0.118 z"
             id="path24134"
             inkscape:connector-curvature="0" />
          <path
             style="fill-rule:evenodd;stroke-width:0.107408"
             d="m 21315.8,248.902 c -0.3,1.167 -1.5,2.149 -3,2.374 -2.2,0.332 -3.7,-1.325 -4.7,-2.996 -2.9,-5.033 -1.4,-12.216 3.9,-15.26 5.3,-3.044 12.2,-0.796 15.2,4.237 1,1.775 1.5,3.911 0.2,5.588 -1,1.254 -2.5,1.784 -3.7,1.403 -3,-0.971 -7,1.625 -7.9,4.654 z"
             id="path24136"
             inkscape:connector-curvature="0"
             sodipodi:nodetypes="cccccccc" />
        </g>
      </g>
    </g>
  </g>
</svg>
