<?xml version="1.0" encoding="UTF-8" standalone="no"?>
<!-- Created with Inkscape (http://www.inkscape.org/) -->

<svg
   width="47.625mm"
   height="20.637501mm"
   viewBox="0 0 47.625 20.6375"
   version="1.1"
   id="svg1"
   inkscape:version="1.3.2 (091e20e, 2023-11-25)"
   sodipodi:docname="logoWhite.svg"
   xmlns:inkscape="http://www.inkscape.org/namespaces/inkscape"
   xmlns:sodipodi="http://sodipodi.sourceforge.net/DTD/sodipodi-0.dtd"
   xmlns="http://www.w3.org/2000/svg"
   xmlns:svg="http://www.w3.org/2000/svg">
  <sodipodi:namedview
     id="namedview1"
     pagecolor="#ffffff"
     bordercolor="#000000"
     borderopacity="0.25"
     inkscape:showpageshadow="2"
     inkscape:pageopacity="0.0"
     inkscape:pagecheckerboard="0"
     inkscape:deskcolor="#d1d1d1"
     inkscape:document-units="mm"
     inkscape:zoom="0.78239463"
     inkscape:cx="272.8802"
     inkscape:cy="165.5175"
     inkscape:window-width="1472"
     inkscape:window-height="824"
     inkscape:window-x="0"
     inkscape:window-y="37"
     inkscape:window-maximized="1"
     inkscape:current-layer="layer1" />
  <defs
     id="defs1" />
  <g
     inkscape:label="Layer 1"
     inkscape:groupmode="layer"
     id="layer1"
     transform="translate(-73.025246,-225.42505)">
    <g
       id="g2172"
       transform="translate(70.379046,155.96635)">
      <rect
         inkscape:export-ydpi="200"
         inkscape:export-xdpi="200"
         inkscape:export-filename="C:\Users\Lino\Desktop\TRABALHO\247 IT Solutions Ltd\Inkscape\Projetos\PET\NEW_PET\Pages\All_imgs\INFO_01.LandingPage.png"
         y="69.458702"
         x="2.6461999"
         height="20.637501"
         width="47.625"
         id="rect24641"
         style="color:#000000;opacity:0.5;fill:none;stroke-width:0.261712;paint-order:stroke fill markers" />
      <g
         id="g2139"
         transform="matrix(1.27271,0,0,1.27271,60.6405,-17.3752)">
        <g
           id="g2084"
           transform="matrix(0.081367,0,0,0.081367,-117.486,32.6296)">
          <path
             id="path2078"
             style="fill:#ffffff;fill-opacity:1;fill-rule:evenodd;stroke-width:0.106955"
             d="m 68.5898,146.535 c -5.8826,-0.096 -12.3948,2.317 -16.9902,6.961 -5.4228,-5.086 -10.9647,-6.879 -17.1836,-6.875 -2.6345,0 -5.1279,0.572 -7.2012,1.623 -5.8736,2.579 -11.7899,9.655 -11.5468,19.701 0.1953,3.611 0.7754,7.876 4.9297,14.776 9.1989,15.277 30.3195,27.842 30.9296,28.203 0.0889,0.063 0.1395,0 0.1426,0 0.6098,-0.361 21.73,-12.926 30.9317,-28.203 4.1527,-6.9 4.732,-11.165 4.9277,-14.776 0.6341,-9.221 -5.6662,-17.122 -11.541,-19.701 -2.1762,-1.104 -4.7213,-1.666 -7.3985,-1.709 z m -16.205,16.072 c 0.481,-0.004 0.9608,0.058 1.4257,0.182 2.8425,0.761 4.525,3.679 3.7657,6.52 -0.7632,2.84 -3.6812,4.526 -6.5215,3.765 -2.8404,-0.761 -4.5265,-3.681 -3.7656,-6.521 0.6195,-2.311 2.7039,-3.926 5.0957,-3.946 z m 10.3535,3.399 c 0.3366,-0.003 0.6693,0.038 0.9902,0.125 1.9766,0.529 3.1475,2.559 2.6192,4.533 -0.5284,1.974 -2.5606,3.146 -4.5332,2.617 -1.9767,-0.529 -3.1456,-2.558 -2.6172,-4.533 0.4305,-1.606 1.8776,-2.726 3.541,-2.742 z m -20.3516,2.373 c 0.4814,-0.004 0.9624,0.057 1.4278,0.182 2.8395,0.761 4.5241,3.68 3.7636,6.519 -0.7608,2.841 -3.6811,4.527 -6.5215,3.766 -2.8399,-0.762 -4.5245,-3.68 -3.7636,-6.52 0.6195,-2.31 2.7019,-3.924 5.0937,-3.947 z m 14.1426,6.984 c 4.2403,0.014 8.4353,2.301 10.5664,5.992 1.1155,1.894 1.6042,4.172 0.2578,5.961 -1.0568,1.337 -2.6616,1.904 -3.9258,1.496 -3.2525,-1.035 -7.5299,1.733 -8.4199,4.963 -0.3307,1.246 -1.5952,2.294 -3.2285,2.534 -2.3578,0.354 -3.9846,-1.414 -5.0488,-3.196 -3.0995,-5.368 -1.4459,-13.03 4.1777,-16.277 1.7572,-1.015 3.6937,-1.479 5.6211,-1.473 z m -17.7598,4.483 c 0.3343,-0.003 0.6674,0.038 0.9903,0.125 1.9746,0.529 3.1467,2.559 2.6172,4.533 -0.5292,1.974 -2.5571,3.146 -4.5313,2.617 -1.9738,-0.529 -3.146,-2.559 -2.6172,-4.533 0.4302,-1.606 1.8784,-2.727 3.541,-2.742 z"
             transform="matrix(2.55497,0,0,2.55497,858.324,79.7993)" />
        </g>
        <g
           style="fill:#9d9191"
           id="g2090"
           transform="matrix(0.055085,0,0,0.055085,-115.472,-68.2244)">
          <path
             style="fill:#ffffff;fill-opacity:1;stroke-width:1px"
             d="m 1612.95,2533.95 c -14.42,9.71 -23.67,19.96 -28.43,30.17 -3.65,9.97 -3.51,18.86 -0.27,26.71 3.83,8.41 9.04,13.58 16.17,18.86 8.95,5.61 14.31,7.39 21.89,9.36 7.98,1.12 10.68,-6.7 6.58,-10.52 -2.07,-1.35 -4.63,-2.45 -7.14,-3.33 -2.29,-0.8 -4.6,-1.91 -6.72,-2.97 -19.9,-10.52 -19.64,-25.32 -15.35,-34.03 5.22,-10.97 17.44,-20.99 33.13,-27.8 8.57,-3.72 19.32,-6.48 27.88,-7.92 12.02,-1.53 20.49,-2.56 34.22,-1 15.69,1.95 31.3,14.19 25.43,31.27 -2.02,5.88 -5.09,12.52 -18.87,19.46 -34.34,16.34 -61.77,33.43 -71.9,69.15 -1.49,5.4 -2.47,10.8 -2.29,15.47 0.32,2.64 1.19,3.96 3.26,5.02 3.19,1.32 11.3,1.7 15.76,-2.03 1.46,-1.38 1.23,-3.42 1.29,-5.19 0.2,-5.71 0.7,-11.63 2.14,-17.26 2.81,-9.15 6.88,-16.72 13.68,-23.68 10.78,-11.47 26.13,-17.97 44.34,-26.14 11.09,-4.97 22.23,-8.44 35.14,-19.79 16.68,-15.77 14.23,-42.04 -5.52,-55.33 -20.79,-12.45 -47.37,-13.2 -72.49,-9.13 -21.6,4.8 -39.58,12.66 -51.93,20.65 z"
             id="path2086"
             inkscape:connector-curvature="0"
             sodipodi:nodetypes="ccccccsccsccsccccccccscccc" />
          <path
             style="fill:#ffffff;fill-opacity:1;stroke-width:1px"
             d="m 1863.99,2535.19 c -1.86,8.3 -3.95,15.23 -6.01,23.97 -24.91,3.25 -37.24,4.59 -58.45,6.1 -9.39,0.9 -37.33,2.74 -38.68,3.32 -3.4,1.72 -5.05,4.87 -4.51,7.87 0.54,3.02 2.99,5.22 5.36,6.02 0.68,0.19 1.89,0.37 2.67,0.28 26.61,-3.25 64.54,-5.56 91.26,-8.34 -1.23,7.18 -4.95,23.85 -9.67,33.74 -11.18,26.35 -24.3,39.39 -45.47,49.65 -12.06,5.49 -24.61,7.74 -37.17,6.8 -9.96,-0.79 -18.95,-5.02 -19.89,-9.43 6.2,-2.75 14.1,-5.33 21.4,-9.13 14.19,-7.5 31.53,-21.65 30.35,-37.95 -0.8,-5.39 -2.82,-9.14 -6.77,-11.81 -5.2,-3.51 -13.33,-4.85 -22.47,-2.62 -10.58,3.04 -20.33,8.47 -30.38,22.04 -8.26,12.11 -9.54,23.03 -9.76,30.78 -20.44,5.52 -49.87,9.26 -62.49,10.22 -2.31,0.56 -3.17,2.02 -3.61,3.15 -1.39,3.55 0,8.27 2.26,9.75 1.12,0.65 2.32,0.56 3.49,0.45 17.18,-1.3 47.72,-6.72 63.31,-10.61 7.64,12.93 34.74,16.82 55.41,13.5 12.01,-1.94 25.83,-6.56 35.91,-13.1 8.18,-5.32 14.13,-9.87 22.55,-19.23 3.03,-3.69 4.26,-6.23 5.54,-9.24 7.89,16.97 20.84,30.13 36,40.87 2.14,1.37 7.14,4.63 11.8,4.22 5,-0.1 10.17,-4.31 11.31,-10.36 0.94,-4.39 -2.12,-8.52 -5.25,-10.8 -19.52,-11.62 -30.51,-16.47 -34.87,-35.34 -2.22,-10.68 3.23,-34.49 7.05,-47.03 21.11,-2.88 23.19,-3.07 44.24,-6.35 1.23,-0.27 3.83,-0.51 6.02,-1.56 3.83,-2.88 2.86,-8.72 -0.25,-10.76 -1.03,-0.65 -2.52,-0.98 -3.81,-0.93 -0.66,0 -1.65,0.13 -2.02,0.16 -18.26,2.66 -33.16,3.88 -42.45,4.78 1.05,-6.81 4.32,-14.96 5.08,-21.79 0.64,-4.31 0.16,-6.84 -2.96,-9.53 -5.44,-3.75 -12.59,0.27 -14.07,8.24 z m -88.76,82.79 c -0.53,3.28 -2.12,5.38 -3.68,7.14 -6.9,7.78 -22.2,15.12 -30.83,17.61 0.5,-5.05 1.64,-8.59 4.59,-14.3 4.16,-7.26 14.68,-16.62 22.85,-17.43 5.54,-0.17 7.63,3.08 7.07,6.98 z"
             id="path2088"
             inkscape:connector-curvature="0"
             sodipodi:nodetypes="ccccscccccccccsccccsccccsccccccccccccccccccccccc" />
        </g>
        <g
           aria-label="PARENT"
           id="g2106"
           style="font-size:4.80785px;font-family:'Open Sans';-inkscape-font-specification:'Open Sans';letter-spacing:0px;word-spacing:0px;fill:#776251;stroke-width:0.400654px"
           transform="matrix(0.942302,0,0,0.942302,-50.1505,26.9641)">
          <path
             d="m 25.4296,59.4185 c 0,0.048 0.038,0.091 0.091,0.091 h 0.1827 c 0.048,0 0.091,-0.043 0.091,-0.091 v -1.1298 h 0.7933 c 0.5865,0 1.0721,-0.4856 1.0721,-1.0818 0,-0.5817 -0.4856,-1.0625 -1.0769,-1.0625 h -1.0626 c -0.053,0 -0.091,0.043 -0.091,0.091 z m 0.3654,-1.4856 v -1.4231 h 0.7644 c 0.3943,0 0.7308,0.2981 0.7308,0.6875 0,0.4135 -0.3365,0.7356 -0.7308,0.7356 z"
             style="-inkscape-font-specification:'Brandon Grotesque';fill:#ffffff;fill-opacity:1"
             id="path2094" />
          <path
             d="m 27.771,59.5099 h 0.1923 c 0.043,0 0.072,-0.029 0.082,-0.053 l 0.3509,-0.7933 h 1.7068 l 0.3558,0.7933 c 0.01,0.024 0.038,0.053 0.082,0.053 h 0.1923 c 0.072,0 0.1106,-0.062 0.082,-0.125 l -1.452,-3.2357 c -0.014,-0.029 -0.039,-0.053 -0.082,-0.053 h -0.048 c -0.043,0 -0.067,0.024 -0.082,0.053 l -1.4616,3.2357 c -0.029,0.062 0.01,0.125 0.082,0.125 z m 0.7597,-1.1443 0.7019,-1.5769 h 0.038 c 0.2355,0.524 0.4663,1.0529 0.7019,1.5769 z"
             style="-inkscape-font-specification:'Brandon Grotesque';fill:#ffffff;fill-opacity:1"
             id="path2096" />
          <path
             d="m 31.3384,59.4185 c 0,0.048 0.038,0.091 0.091,0.091 h 0.1875 c 0.048,0 0.091,-0.043 0.091,-0.091 v -1.226 h 0.9183 l 0.6395,1.2741 c 0.01,0.019 0.034,0.043 0.077,0.043 h 0.2452 c 0.082,0 0.1154,-0.077 0.082,-0.1394 L 33.0113,58.149 c 0.4182,-0.1683 0.7115,-0.5385 0.7115,-0.9808 0,-0.5722 -0.4711,-1.0241 -1.0481,-1.0241 h -1.2452 c -0.053,0 -0.091,0.043 -0.091,0.091 z m 0.3798,-1.5433 v -1.3798 h 0.9328 c 0.3702,0 0.6923,0.3125 0.6923,0.6779 0,0.3942 -0.3221,0.7019 -0.6923,0.7019 z"
             style="-inkscape-font-specification:'Brandon Grotesque';fill:#ffffff;fill-opacity:1"
             id="path2098" />
          <path
             d="m 34.5164,59.4185 c 0,0.048 0.039,0.091 0.091,0.091 h 1.8943 c 0.053,0 0.091,-0.043 0.091,-0.091 v -0.1394 c 0,-0.048 -0.038,-0.091 -0.091,-0.091 h -1.6155 v -1.226 h 1.3799 c 0.048,0 0.091,-0.038 0.091,-0.091 V 57.731 c 0,-0.048 -0.043,-0.091 -0.091,-0.091 h -1.3799 v -1.1731 h 1.6155 c 0.053,0 0.091,-0.043 0.091,-0.091 v -0.1394 c 0,-0.048 -0.038,-0.091 -0.091,-0.091 h -1.8943 c -0.053,0 -0.091,0.043 -0.091,0.091 z"
             style="-inkscape-font-specification:'Brandon Grotesque';fill:#ffffff;fill-opacity:1"
             id="path2100" />
          <path
             d="m 37.3627,59.4185 c 0,0.048 0.043,0.091 0.091,0.091 h 0.1683 c 0.053,0 0.091,-0.043 0.091,-0.091 v -2.6154 c 0,0 0,0 0,0 l 2.2068,2.7549 h 0.087 c 0.048,0 0.091,-0.038 0.091,-0.087 v -3.2356 c 0,-0.048 -0.043,-0.091 -0.091,-0.091 h -0.1683 c -0.053,0 -0.091,0.043 -0.091,0.091 v 2.5625 c 0,0 0,0 -0.01,0 l -2.1683,-2.702 H 37.454 c -0.048,0 -0.091,0.038 -0.091,0.087 z"
             style="-inkscape-font-specification:'Brandon Grotesque';fill:#ffffff;fill-opacity:1"
             id="path2102" />
          <path
             d="m 41.5599,59.4185 c 0,0.048 0.043,0.091 0.091,0.091 h 0.1827 c 0.048,0 0.091,-0.043 0.091,-0.091 v -2.952 h 0.8366 c 0.053,0 0.091,-0.043 0.091,-0.091 v -0.1394 c 0,-0.048 -0.038,-0.091 -0.091,-0.091 h -2.0386 c -0.053,0 -0.091,0.043 -0.091,0.091 v 0.1394 c 0,0.048 0.038,0.091 0.091,0.091 h 0.8366 z"
             style="-inkscape-font-specification:'Brandon Grotesque';fill:#ffffff;fill-opacity:1"
             id="path2104" />
        </g>
      </g>
    </g>
  </g>
</svg>
